<svg xmlns="http://www.w3.org/2000/svg" xmlns:xlink="http://www.w3.org/1999/xlink" viewBox="0 0 500.01 500.04"><defs><style>.cls-1{fill:url(#radial-gradient);}.cls-2{opacity:0.54;}.cls-3{fill:#7f0101;}</style><radialGradient id="radial-gradient" cx="250" cy="250" r="250" gradientUnits="userSpaceOnUse"><stop offset="0" stop-color="#ea030f"/><stop offset="1" stop-color="#7f0101"/></radialGradient></defs><g id="Layer_2" data-name="Layer 2"><g id="Øàð_1" data-name="Øàð 1"><rect class="cls-1" width="500" height="500"/><g class="cls-2"><path class="cls-3" d="M187,396.1c24.75-5.23,30.63-18.74,32-24.13a113.67,113.67,0,0,0,12,13.91,37.66,37.66,0,0,1-15.81,32.37c-12.56,9.13-21.29,4.25-25.37.56-.12-.25-.22-.48-.38-.76-7.19-11.79-2-20.88-2-20.88a100.51,100.51,0,0,1-11.36.63,35,35,0,0,0,3.57,25c1,2,8.29,16.17,28.06,13.8a29.48,29.48,0,0,0,25.54-21.51s0-1.07,2.23-5.11,5.67-10.43,5.67-10.43-4.26-5.32-.4-9.16,7.7-.21,7.7-.21l5.88-5.1a50.28,50.28,0,0,1,15.89-9.89c-1.24.42-6.27,1.72-17.51.1-13.18-1.93-34.58-18.79-32.84-46,1.87-29.29,25-33.7,32.39-34.36a57.77,57.77,0,0,1,10.3.83,2.29,2.29,0,0,0,.52,0,24.51,24.51,0,0,1,16,12.87c6.72,13.69-10.23,35.65-17.86,16.11,5.36-1,9.35-4.57,9.35-8.87,0-5-5.5-9.15-12.27-9.15a15.61,15.61,0,0,0-3.73.48l0-.05s-16.21,3-14.59,23.84c1.8,23.22,34.86,29.17,47.43,11.71s11.55-49.79-25-60.13a.55.55,0,0,1,0-.14s12.8-9.17,9-24.69c-4-16.26-26.94-15.27-33-7.2a14.76,14.76,0,0,0-3.69,10c0,7.4,4.9,13.41,10.94,13.41,5.59,0,10.15-5.14,10.81-11.76.77.12,1.59,1.46.49,7.76-1.4,8-10.29,11.16-13.89,12.14a4.19,4.19,0,0,0-1.26.16,68.94,68.94,0,0,0-20,8.86l0-.06s5.27-25.4-15.61-41.18c-12.3-9.3-24-10.65-31.49-10.2l0-.05c-16.68.82-41.26,14.14-40.49,49.8s47.61,41.8,57.08,19.05-6.35-30.63-6.35-30.63l0,.07c-3.94-2.28-9.6-2.14-14.67.89-7,4.2-10.19,12.24-7.08,18,2.32,4.28,7.51,6.06,12.92,4.91.92,2.1,1,5.06-4.4,6.6-9,2.56-28.39-3.28-26.15-26S166.94,255,166.94,255a37.72,37.72,0,0,1,33.94,7.08c15.24,12,11.79,32,9.77,39.39a43.33,43.33,0,0,0-8.44,22.42c-1.35,14.18,4.19,28,10.75,38.95-.24,4-2.4,14.42-17.84,20.66-19.46,7.89-35.68-6.17-35.68-18.73,0-7.62,1.94-9.75,3.47-10.24.23,9.22,6.66,16.63,14.57,16.63,8.06,0,14.6-7.68,14.6-17.14a19.13,19.13,0,0,0-2.72-9.93c-6.14-17.66-35.59-18.85-43.3,1.31C138.16,366.09,155.79,402.7,187,396.1Z"/><path class="cls-3" d="M213.93,403.15c6.17-10.34-1.19-18.85-1.19-18.85s-2.77,5.62-17.41,10.93c0,0-4.69,2.22-3.59,8.6S207.76,413.51,213.93,403.15Z"/><path class="cls-3" d="M180,384.3s4.28,1.19,10.78-.38a39.57,39.57,0,0,0,13.35-6.68C188.33,369.6,180,384.3,180,384.3Z"/><path class="cls-3" d="M27,31.91s-9.7-.68-13.43,1.79S-1.62,45.33.32,61.76s16.11,25,26,23.55a19.86,19.86,0,0,0,6.45-2,59.56,59.56,0,0,0-2.22,22.19c1.46,17.36,9.55,29,20.56,35.75-.17.09-10,5.34-12.81,24.15-2.88,19,4,30.11,10.21,35s14,7.32,26.8,4.26,20.51-15.66,19.64-29.78-7.68-22-20.6-18.2a15.11,15.11,0,0,0-8.82,10.46c-1.92,8,2,13.36,6.72,14.21a7.84,7.84,0,0,0,8.89-4.92s2.29,3.3-1.73,8.66-16.58,8.42-25-.94S47.76,164.5,50.64,158s6.29-9,8.38-10.13c1.31-.68,2-1,2.28-1.22,1.86,1,8.83,3.88,24.26,1.82,18.42-2.47,19.81-4,19.81-4s-2.88,4.51-3.84,14.37a48.19,48.19,0,0,0-.1,10.86c.09,1,.23,2.23.46,3.87.61,4.42,3.4,15.48,12.91,22.29s20.43,7.23,32.39,5.1,23.83-15.06,23-36.32S155,137.11,143,138.55,127.2,152,130.43,162.2s15.62,11.15,19.9,4.17-.17-12-.17-12,6.72,3.23,7.77,10.55-1.75,15.22-10.3,18.37a29.75,29.75,0,0,1-27.24-2.89A21.19,21.19,0,0,1,111,167.92a37.13,37.13,0,0,1-.43-10.74c.79-9.19,2.53-14.29,5.76-17.1s9-6.64,9-6.64,8.82-7.91,13.79-15.74a63.66,63.66,0,0,0,5.3-9.8l.05.15s2.84-7.26,5.05-13.11c.39,1.55,1,3.68,1.9,6.6,2.67,8.59,11.75,18.48,23.76,21.6s27.77-1.56,28.83-19-10.68-27.06-21.36-25-12.81,14.31-6.94,21.33,12.72,1.32,12.72,1.32l.1-.79c1.6,8.84-10.95,12.48-23.23,1.82-10.36-9-10.92-26.27-10.84-31.46.24-1.87.46-3.71.64-5.44.13-1.2.23-2.35.32-3.44.45-5.57.65-8,.74-9.06.93,1.65,6.55,10.37,20.73,10.64,15.67.29,27.6-7.71,31.78-29.08S192.88,6.52,181.85,6.66s-20.44,7.56-15.52,20.94S179,39.44,182.79,36.35s2.1-10.52,2.1-10.52,8,3.51,3.67,18.48S159.28,49.25,157,41c0,0,.69-12.5-4.08-24S145.24,0,145.24,0H134.17s6.51,8.8,7.25,18.54-3,24.45-7.92,28.14-10.57,5.44-17.88-1.24-5.82-13.67-5.52-17.16a16.15,16.15,0,0,1,1.34-5.52s-.15,4.5,9.1,4.36,14.77-8.29,13.58-17S129.9,0,129.9,0H100.08S84.89,9.28,88.92,30.79s42.51,37.8,57.72,14l.15-.77,0,0a84.73,84.73,0,0,1-.45,26.57c-2.67,16.13-6.88,22.86-6.88,22.86v0l-.09.12.08-.16s-3.74,4.1-14.13,1.46-9.17-11.65-5-14.8c0,0,.51,5.5,7.24,5.52s9.61-6.71,7.78-13.86-12.49-7.65-18.16-3-11.17,14.89-3.66,25.77,22.78,5.55,22.78,5.55-2.1,5.51-10.13,14.28a70.35,70.35,0,0,1-18.76,14.54l-.6.36c-7,2.87-19.35,6.68-32.64,4.72a15.18,15.18,0,0,1-2.9-12.14c1.48-7.91,10.56-12.25,19.12-6.63,0,0-7.69.51-9.61,6.89s1.84,10.63,11.26,10,13.71-8.16,10.57-18-17-17.61-29.51-11.57C60.94,108.48,56,118.63,60.73,129.44c-11.08-6.63-14.79-18.72-15.81-30.5-1.34-15.35,10.14-28.1,20-30.7,3.71-1,7.94-2,11-1.3,5,1.16,7.47,5.44,4.8,10.45,0,0-1.6-7.59-9.61-5s-8.81,16.14-.53,21.86,22.42,6.24,31.24-3.9,9.34-22.12,3.2-32a28.36,28.36,0,0,0-14.6-11.58c-1.73-3.7-6.39-14.93-5-26C87,7.24,97.55,0,97.55,0H36.27s-3.58,4.3-3.73,12.29c-.14,7.48.89,8.6,1,8.71-.16-.12-8.85-6.85-15.5-10.16A32.74,32.74,0,0,1,7.93,3.32s2.56,2.2,11.66,1.47S31.67,0,31.67,0H.1v23.9s9.47.46,17.07,3.22S27,31.91,27,31.91ZM60.48,145.78l.11.2-.28-.14ZM60.22,5C69,3.38,78.33,10.3,75.94,24.25a66.66,66.66,0,0,1-8,22.23l-.59.16a42.81,42.81,0,0,0-10.5,4.79,30.8,30.8,0,0,0-2.08-7.12,26.21,26.21,0,0,0-6.26-9.16l-.6-6.39C47.3,22.36,51.48,6.66,60.22,5ZM39,46.64a15.84,15.84,0,0,1,7.51,13.21,59,59,0,0,0-6.12,7.49c-.05-.54-.11-1.09-.2-1.66-1.78-11.19-14-8.14-16-2s4,8.28,4,8.28-.27.88-2.8,1.75-6,.73-8.95-3.2S12,60.74,14.79,53,30.15,41.26,39,46.64Z"/><path class="cls-3" d="M8.52,113.36A34,34,0,0,0,.1,92.64v45.21S9.16,126.16,8.52,113.36Z"/><path class="cls-3" d="M36.22,191.38s-3.65-7.78-6.06-10.19c0,0-2.56,4.56-11.8,9.68A42.81,42.81,0,0,1,.1,196.1v11s16.32-.81,24.08-4.9A32.09,32.09,0,0,0,36.22,191.38Z"/><path class="cls-3" d="M24.41,266.8c15.28-2.63,17.51-17,17.51-17a26.67,26.67,0,0,0,2.47,11.85c2,4.28,6.22,7.41,8.67,8.95l-.06.2s3,2,10.65,2.89,17.89-.93,22.52-10.38,5.06-20.76.17-30.28a18.66,18.66,0,0,0-14-10.3s-.35-.85.43-6.63a22,22,0,0,1,4.8-10.31c-4.1,1.77-11.52,1.8-11.52,1.8a30.82,30.82,0,0,0-1.39,7.57,27.55,27.55,0,0,0,.3,7.5l-.3.25c-3.67.93-11,4.33-12.4,14.37s4.28,18.21,12.22,18.29,12.31-5.87,9.87-11.06S68,239.2,68,239.2,71.07,236.48,74,238s6.46,4.85,6.54,12.08-2.79,17-11.87,18S57,266.34,57,266.34l-.39-.27a22.24,22.24,0,0,1-8.45-14.63s-.32-3.49-.24-7.75,2.47-11,3.82-18.23,1.68-20.7,1.68-20.7a21.74,21.74,0,0,1-7.89-5.44c-3.5-3.87-6.12-10.31-8-13.88l-.06-.12A40,40,0,0,1,36,176a50.91,50.91,0,0,1,1.43-14S30,150.54,19.8,149.07a45.07,45.07,0,0,0-19.7,2v22s14.13-2.21,24.08,1.52c4,1.48,7.22,5,9.42,7.93,1.2,1.9,4.23,6.78,5.94,10.21,2.14,4.35,4.21,9.38,4.53,11.4a33.68,33.68,0,0,1,1.12,7,59.94,59.94,0,0,1-1.6,17.13C40.73,240,33.25,247.57,23.22,248.34s-13.13-2.64-15.6-4.65c-1.92-1.57-2.33-4.33-2.42-5.47,5.08-.75,15.84-3.68,17.46-16.48C24,211.42,20.43,208,16.32,207.21L16,207.1s-2.25-.78-9.1,1.18-6.8,8.54-4.83,9.44a2.72,2.72,0,0,0,2.61-.31A7.49,7.49,0,0,1,.1,221.82v40.33S9.13,269.44,24.41,266.8Z"/><path class="cls-3" d="M224.22,14.73c7.9,5.07,17,2.91,22.82.19S257.63,4.6,258.3.1L217.64,0S216.33,9.67,224.22,14.73Z"/><path class="cls-3" d="M403.52,14.77C424.69,15.07,428.44,0,428.44,0h-54.1S382.35,14.48,403.52,14.77Z"/><path class="cls-3" d="M113.49,262.34c16.33-2,24.36-9.87,28.28-26.8s-4.37-31.77-4.37-31.77A39.91,39.91,0,0,1,115.24,198c-10.91-6.72-12.9-14.79-12.9-14.79l-5.91.26s-1.53,6.7-3,9.42a27.38,27.38,0,0,1-4,5.28s12.48-4.77,23.39,1.53,11.61,11.91,11.61,11.91l.22-.13c1.67,3.85,3.94,10.39,3.71,17.07C128,239,122.14,247,115.94,249.92c-5,2.32-9.7.32-12-1.22-.85-.79-3.2-3.1-3.7-5.25a11.52,11.52,0,0,1,.33-5.46s.63,2.82,6.48,2.91,10.47-4.77,10-15.66-10.91-15.31-21-12.84-12.8,9.86-13.51,13.52a25.69,25.69,0,0,1,7.66,12.34c2.35,8.17,0,17.08,0,17.08S97.17,264.38,113.49,262.34Z"/><path class="cls-3" d="M259.88,171.73l-1.29-8.55s-1.59.21-5.69.38-6.52,0-6.52,0,.23,12.5-4,18-12.22,9.61-22.17,6S200.87,176.15,195.55,163c-3.69-9.12-3.65-18.76-3.28-23.84.11-1,.5-4.33,1.36-8.92,1-5.61,2.35-7.91,2.35-7.91a45.8,45.8,0,0,1-8.55,2.81,23.61,23.61,0,0,1-9.08.4c-.47.88-1.64,6.56-2.39,10.36a46.17,46.17,0,0,0-1.28,9.23c-.17,6.3-.43,19.91,5.33,31.31s9.51,16.44,9.51,16.44l.15.07a45.12,45.12,0,0,1,4.39,11.57c1.49,7.23.09,11.65-5.06,12.84s-7.51-1.61-7.86-3.49,1.64-3.5,1.64-3.5,3,2.49,5.78-2.37,1.4-10.46-4.62-12.76c0,0-8.91-3.23-14.23,5.19s-5.59,24.5,6.2,27.4,21.21-1,25.75-11.06c3.43-7.6,2.93-13.56,2.49-16,4.2,4.24,10.63,8.18,24.91,7.93,14.84-.25,20.17-11.74,20.17-11.74s-1.92-6.29,1.74-15.06S259.88,171.73,259.88,171.73Z"/><path class="cls-3" d="M221.3,170.79c13.7,4.43,20-8.33,20-8.33s-9.51-4-13.7-13.27-2.67-13.41-2.67-13.41C209.94,139.64,207.59,166.37,221.3,170.79Z"/><path class="cls-3" d="M214.85,78.62c-6,3.74-11.27,7.71-12.31,9.63a23.42,23.42,0,0,1,2.33,7.83,34.47,34.47,0,0,1-.1,9.5s3.69-11.93,24.69-17,33.44-2,41.73,2a49.54,49.54,0,0,1,14,10.86,74,74,0,0,0-3.36,20.68c0,2.65,0,5.17.09,7.59-1.85,5-8.2,17.94-24.79,18.37-20.59.54-20.07-16.51-18.26-18.29,0,0,1,6,13.7,6s19.2-11.85,11.6-22.09-29.29-7.94-35.5,9.16-1.66,35.42,14.78,38.38,29.42-3.5,35.09-9.29a24.77,24.77,0,0,0,5.09-6.8c2.21,10.19,6.86,18.81,16,28.65a51.56,51.56,0,0,0,7.39,6.55c.72,3.07,2.81,14.4-3.11,23.17-6.91,10.23-28.6,13.46-33.57-3.1,0,0,5.67,3.63,12.3-5.65s1.66-32.59-20.59-23.3c0,0-7.6,2.83-10.64,14.14a32.49,32.49,0,0,0,6.49,29.49c6.22,7.27,26.53,17.5,44.77,3.1,16.56-13.09,12.74-30.3,11.9-33.35a42.85,42.85,0,0,0,18.55,4.5h.54c2.91,1.55,10,6,13.36,13.91,4.29,10.1-4.56,11.58-4.56,11.58s2.07-8.22-4-11.18-15.61,1.89-13.4,14.28,15.06,19.12,28.46,13.87,12-23.43,12-23.43.39-10.9-11.65-19.55c4.25-.7,19.2-4.08,33.29-18.56,15-15.37,14.14-35.73,13.83-39.68a70.51,70.51,0,0,1,10.06,4.32,89.09,89.09,0,0,1,9,6.75s.22-2.48.53-6a56.15,56.15,0,0,1,1.7-8.46L418.55,125c1-.34,4.37-1.58,5.46-3.41a148.86,148.86,0,0,1,7.63-18.23,69.76,69.76,0,0,1,9.91-14.08s6.73-10.53-4.31-32-29.08-9.13-30-6.92c0,0,2-21.57-12.3-29.19-3.38-1.8-6.65-2.65-12.7-1.77,0,0-11,1.18-14.06,11.64S366.93,53.27,376,55.92s14.56-3.27,15.07-5.62c0,0,2.62,3-1,8.57s-11.5,7.22-19.51,3.24c-7.47-3.71-9.81-9.71-10.34-12.3a62.3,62.3,0,0,1,.67-17.62,45.45,45.45,0,0,1,7-16,23.81,23.81,0,0,1-7.42-6.53C357.82,6.08,357.21,0,357.21,0H330.87l-.95,9.29C328.11,7,323.15,1,320,0L280,0a16.11,16.11,0,0,0-6.84,12.76c-.29,8.73,3.76,14.73,13.67,15.58s16.37-3.57,16.66-9.76S296,10.7,295,11.45l-1,.75s.87-4.88,10.21-3.85,16.27,6.57,18.39,14.45c1.87,7-2.55,17.11-3.62,19.41-6.66-4.86-25.71-6.48-30.09,7.22-4,12.55,5.65,24.72,7.31,26.69-1.08,1.91-2.13,3.86-3.13,5.82-3.13-1.09-15.62-5.53-29.36-11.59-15.89-7-23.21-17.23-15.75-24.64s19.62-4.84,18.1,3.91c0,0-4.15-5.25-9.4-.27s-1.52,13.06,9.81,13.06,15.75-12.25,11.06-21-19.76-11.18-28.47-7.81-12.19,7.5-12.19,7.5l0,0c-4.06-.74-17.63-2.1-25.89,10.49C202.11,65.11,212.67,76.49,214.85,78.62Zm185,37.86-.18-.35.65.31ZM342.37,51.84l1.28-.3h.12c-.11,2.85,0,17.82,13.94,24.87,15.42,7.81,31.33,4.5,35.32-.33,0,0-.09,10.94,5.66,17.57s16.93,8,23.13,1.33,4.38-20.19-4.39-23.28-11.19.88-11.19.88.15-7.66,6.2-8.4S424.69,67.56,428,77.58s2.27,20.93-7.4,30.06c-8,7.53-17.95,8-21.22,7.86l-.1-.19-1.36-2.51c-1.36-2.5-3.78-6-3.78-6-6.65-12.09-25.4-21.07-44.91-16.65s-26.76,27-17.84,42.73,22.53,14.44,31.6,9.58,5.44-15.77,3.33-18.12a7.27,7.27,0,0,0-5.3-2.21l2.38-1.78c2.37-1.78,6.54-2.2,10.47,1.63S377.82,133,377.82,133l.19,0A29.68,29.68,0,0,1,375,149.05c-5.6,10.91-35.39,23.73-56.86,6.63s-17.23-44.2-6.35-69.11A77.28,77.28,0,0,1,342.37,51.84Zm-38.64-4.62a12.31,12.31,0,0,1,12.07-.38l-7.38,10.7c-1.93,2.57-3.84,5.26-5.7,8.06l0-.06C300.87,62.48,296.47,51.2,303.73,47.22ZM222,56.49c2.86-7.07,7.72-7,9.59-6.65a14,14,0,0,0-.53,4.35c-1.64-.26-4.51-.21-5.19,3.11-1,4.71,2.94,7.56,8.59,6.14.21-.06.4-.13.58-.2a26.54,26.54,0,0,0,4.87,4.2A75.15,75.15,0,0,0,227.2,71.9C224.89,69.83,219.09,63.69,222,56.49Z"/><path class="cls-3" d="M388.63,203.66c2.21,7,12.71,6.87,17.13,3.64s8.7-13.33,4.14-20.87S387.25,175.11,378,188s-5.53,32.86,14.09,39.46,35.1.27,43.66-10c11.49-13.72,11.33-18.85,11.33-18.85s-1.52-.94-4.7-3a20.5,20.5,0,0,1-4.67-3.89s-3.06,20.86-22.54,26.11-28.6-2.43-31.09-10.37,2.49-14,6.77-15.08A11,11,0,0,0,388.63,203.66Z"/><path class="cls-3" d="M492.32,63.12c6-14.68-6.22-23.31-15.28-20.95s-9.79,13-4.11,15.2,7.89-1.91,7.89-1.91c.41,4.65-3.67,11.25-11.57,6.53S458.6,47.62,467.66,35.5,500,24,500,24V0H486c3.47,7.7,11.48,11.34,11.48,11.34s-17.24.92-27.24,7.8-23.28,18.37-17.49,40.24S486.31,77.8,492.32,63.12Z"/><path class="cls-3" d="M494.84,261.71a21.54,21.54,0,0,1-2.63-8.93s.53,2.05,3.37,5,4.41,4.44,4.41,4.44V221.79s-1.77,2.64-9,2.34-7.57-10.48-3.81-16.2c.91,0,3.91-.05,7.07-.13a24.44,24.44,0,0,0,5.78-.71l0-10.9s-1.69-.4-8.33.31-9.78-.56-9.78-.56-1.4-4.64,2.94-11.45c6.21-9.75,15.15-11.37,15.15-11.37v-22s-17.15,6-23.9,17.89a60.38,60.38,0,0,0-7.64,24.2C456.6,189.34,445,178.53,440,165.65c-5.07-13.1-4.88-27.85-4.88-27.85h0A64.53,64.53,0,0,1,439,116.93c5.48-14.89,15.17-21.67,28.13-24s24.65,5.55,25.49,19.51-5.26,22.28-13.48,23.72-8.78-2.91-8.78-2.91,4.25-1.1,6.14-7.67-.74-12.11-4.84-14.78-19.49-3.8-22.44,16.32,7.69,29.26,25.07,27.72S500,137.66,500,137.66V92.72c-17.07-22.08-46.23-15.83-61.5,2.85-14.52,17.76-15.91,40.7-16,42.93s-.4,5.93-.34,8.42c.1,3.78-1.29,19.79,13.24,38.42s33.55,20.3,33.55,20.3l4.53.58c-1.27,1.62-7.52,10.47-2,20.57,3.48,6.38,10.58,9.55,16.92,10.82l-1.09.06a27.79,27.79,0,0,1-23.73,16.85c-18,1.33-16.45-14.83-12.44-16.24,0,0-2.35,4,.19,6.94s5.93,2,10.56-2.92S466.61,223,456.6,221s-20.64,7.18-18.85,22.79,12.85,23,21.38,23.82,20.44-6.06,23-9.65c.9-1.29,1.48-2.11,1.86-2.64a36,36,0,0,0,7.34,21.14c6.42,8.32,8.71,8.71,8.71,8.71l0-16.88A22.92,22.92,0,0,1,494.84,261.71Z"/><path class="cls-3" d="M487.15,291.69A76.19,76.19,0,0,0,480,304.77a78.39,78.39,0,0,0-26.83-7c-10.19-.77-16.26-1.13-19.7-1.3-6.88-2.64-16-10-16.66-21.89-.7-12.61,8.66-16.69,8.66-16.69,12.44-3.3,16.82,3.49,16.52,10.19s-3.58,7.17-3.58,7.17a2.52,2.52,0,0,0,1.4-2c.11-10.33-12-10.05-14.64-2.67s1,19.79,18.51,17.85,15.08-19.29,15.08-19.29-10-.6-17-10.79-5.28-19.11-5.28-19.11c-12.35-1.27-27.66,4.08-32.54,23.19-4.34,17,6,31.25,8.3,34.17l-11.58.23-2.4-.06v0c-2.64-.23-11.32-1.1-17.41-3.14-7.27-2.42-17.62-7.95-21.5-19.2s.3-17.17,7-21.25,22.69-3.29,24.08,5c1.2,7.07-1.48,9.85-2.26,10.5-.06-.42-.14-.84-.24-1.25-.41-4.5-4.32-9.21-10.53-8-6.59,1.3-6.49,7.94-6.47,8.48a9.68,9.68,0,0,0,.41,5.34c1.41,4.76,5.7,9.9,14.92,9.08,13-1.17,18.31-12.13,14.73-27.65s-25.7-21-41.41-10.87c-16.72,10.77-12.64,33.86-12.64,33.86-3.81,7.7-16,11.67-17.64,12.17l-.18.05s-6.66,2.72-19.3,1.07-21.9-14.46-20.3-30.75c1.56-16.07,16-19.3,21.07-10.29-.27,0-.52,0-.79,0-2.12-.66-7.13-1.72-10.43,1.72a10.22,10.22,0,0,0,4.38,16.69c8.36,3.1,21.2,2.61,23.59-16.11S308.08,223.74,289.77,238s-13.14,48,5.18,57.43c11.63,6,20,6.47,25.4,5.87a33.49,33.49,0,0,0-19.23,21.19c-4.68,15.62-2.89,32.2,12.74,47.14s30.85,9.9,30.85,9.9a60.18,60.18,0,0,1,12.05-17.75,23.24,23.24,0,0,1,17.64-6.5s.87-5.53-1.52-17.17-11.25-16.88-23.79-14.46-14,16.1-14,16.1h.06a10.18,10.18,0,0,0-.07,1.11,10.5,10.5,0,0,0,20.84,1.82c.85.46,2.47,1.85,2.76,5.89.39,5.53-4.68,17.85-18.72,16.1s-25.18-16.58-16.22-37.73c5-11.75,13.34-16.31,19.78-18a73.3,73.3,0,0,1,14.66-.77,125.65,125.65,0,0,1,26.16,3.62c-1.84,1.75-4.83,5.88-5.74,14.75-1.34,13.1,2.69,23.41,14.95,26.35s22.85-1.31,22-13.91-11.08-13.1-15.45-10.48-1,6.79-1,6.79a12.74,12.74,0,0,1-2.32-1.87c-1.84-3.44-2.35-8.68,1.68-14.08s15.29-5.41,25-5.73c5.94-.2,12.26,0,16.28.23-2.71,1.28-11.66,6.6-14.59,21.94-3.48,18.18,9.37,26.7,15.8,27.72l1,.21a125.36,125.36,0,0,1,22.2,0c10.17,1,23.8,7.36,25.94,8.38a.67.67,0,0,0,.66.44c.9,0,3.11-2.87,5.43-5.74a37.48,37.48,0,0,0,3.88-6.07V320.24s-.09-.83-1.88-3.09-4.53-3.8-5.38-4.74,1-2.86,3.59-5.83,3.67-4.23,3.67-4.23V286.48a28.54,28.54,0,0,1-4.41-3.1S491.79,285,487.15,291.69Zm-3.89,48.37-2.74,3S479,332.15,467.77,332s-15.8,7.9-14.43,15.8c1.64,9.49,10.61,8.31,10.61,8.31s-15.35,3.6-17.67-9.85,5.9-24.53,21.7-23.51a23.28,23.28,0,0,1,11.61,3.62c.16.2.33.4.51.59a42.27,42.27,0,0,1,6.23,7.89,6,6,0,0,1,.19.63v-.3a8.23,8.23,0,0,1,.48,1l0,.21A52.24,52.24,0,0,0,483.26,340.06Z"/><path class="cls-3" d="M491.05,374.7a62.11,62.11,0,0,0-34.13-9.9c-20.12.21-33.82,4.31-45.51,17.35S396.56,406.49,397,424.46a54.15,54.15,0,0,0,25.18,44.35c15.38,9.86,29.49,11.5,40.87,2.57s17.07-25.36,7.38-44.76-29.71-19.2-36.87-10.79-5.7,23.1,1.79,27.31,11.79,1.85,13.38-.51a4.71,4.71,0,0,0,.88-3.2,9.07,9.07,0,0,1-5.1,10.59c-7.69,3.9-25.18.31-28.44-21.87S430.8,388.52,443.33,386s24.76-4.42,37.29,4.82,16.75,14.17,15,16.22-1.58.93-5.05-3.39-12.33-11-16.12-13.55a33.34,33.34,0,0,0-7.21-3.7s-1.85,16.23,5.84,30.09,19.26,17,26.95,18.29v-71.5a67.9,67.9,0,0,1-5,7.11C491.86,374.36,491.05,374.7,491.05,374.7Z"/><path class="cls-3" d="M490.63,480.39c-5.41,8.34-4,17.71-3.66,19.54h13V470.21S496,472.06,490.63,480.39Z"/><path class="cls-3" d="M377.49,450.33c-10,3-14.32,8-15.53,9.66.58-2.23,1.29-8.7-2.27-24.65a107.57,107.57,0,0,0-7.81-23.15c0-5.46.56-23.05,7.84-30.75,8.68-9.17,11.16-4.6,11.16-4.6-6.8,1.47-6.15,13.53.45,15.32s22.48,2.26,21.63-19.06-23.95-20.25-36.9-8.93c-11.07,9.66-13.13,28.08-13.49,33.26a55.92,55.92,0,0,0-6.37-6.55c-10.11-8.72-25.49-19.4-43.5-19.4s-41.4,11.19-52.15,30.8-10,23.41-11.27,30.49c-.93,5.22-.78,13.05-.63,16.82v0c-.32,3.6-3.58,10.68-9.9,14.58s-20.44,9.24-29.18-1.64-1.58-19-1.58-19-2.22,4.11,2.1,8.22,9.91,3.9,13.17-2.36a9.72,9.72,0,0,0-1-10.93s-5,0-11.94-3.55-7.49-5.74-7.49-5.74c-7.4-1.22-18.53,9.23-18.63,25.45s14.43,32.14,39,27.83c21.27-3.74,26.87-16.34,28-19.64a41.75,41.75,0,0,0,3.5,6.81,42.3,42.3,0,0,0,9.28,10.07,21.14,21.14,0,0,1-.32,11.59c-2.21,6.36-9.17,8.63-9.17,8.63H258.3c.79-4.53-.13-11.41-.25-12.24a37.94,37.94,0,0,0,6.52,1.76c10.85,1.85,25,2.67,34.76-11s11.17-36.55,5.59-51.33-25.07-17.35-37-7.7-11.06,24.44-4.32,31,14.75,3.18,16.75-3.7c0,0,1.48,6.68-6.74,9.55s-23.28,2.77-23.91-20.64,20.54-48.46,57.09-38.4c0,0,11.06,3.29,21.28,15.1,0,0,7.9,8.72,11,29.77a77.25,77.25,0,0,1-2.13,33.37c0-3.09-.77-9.28-5.88-18.69-7.69-14.17-20.08-10.22-21.31-9.06a103.76,103.76,0,0,1-2.29,16.46c-1.89,8.11-3.79,11.6-3.79,11.6s-2.74,10.47,5.27,13.76,13.69-6.88,10.64-18.9a8.29,8.29,0,0,0-2.43-3s4,.61,7.69,5.75,5.48,7.39,6.22,13.86a55.05,55.05,0,0,1-.17,12.63l.15,0,0,0h26.34A30.08,30.08,0,0,1,361.48,476c7.9-12.21,24.13-13.24,33-8.83s11.27,11.61,10.32,17.05-4.11,5.95-4.11,5.95,2.32-2.36-1.58-10-16.22-7-21.07-2.15a17.39,17.39,0,0,0-5.27,15c.53,4.93,1.86,6.88,1.86,6.88h53.68s2-15.92-11.29-32.55S389.72,446.64,377.49,450.33Z"/><path class="cls-3" d="M233,490.59c-7.41-4.73-15.7,3.18-15.39,9.34h16.45S240.66,495.47,233,490.59Z"/><path class="cls-3" d="M37.25,285.63c-.31,5.15,5.12,10,14.44,8.17s10.25-16.64-4.81-24.21-31.37,2.27-34.17,5.3a31.23,31.23,0,0,1,6.37,3.18l5.28,3.33a20,20,0,0,1,9.94-3.64c6.21-.6,8.69,2.73,8.69,2.73S37.56,280.49,37.25,285.63Z"/><path class="cls-3" d="M6,296.84c3.1-2.14,6.05-3.9,6.05-3.9s-2.11-1-6.19-3.27S.1,286.41.1,286.41v16A34.76,34.76,0,0,1,6,296.84Z"/><path class="cls-3" d="M6.17,338.74C5.08,324.82.1,320,.1,320v40.59S7.25,352.66,6.17,338.74Z"/><path class="cls-3" d="M12.54,355c4.5,7.57,20.5,4.09,21.58-12.86S14.71,318.21,5.55,328.65a48.53,48.53,0,0,1,2,10.65,44.81,44.81,0,0,1-.34,7.81s2-3.78,4.53-4.08a7.29,7.29,0,0,1,3.62.21S8,347.42,12.54,355Z"/><path class="cls-3" d="M99.86,499.93h29.76s-3.69-3.16-13.12-3.88A26.18,26.18,0,0,0,99.86,499.93Z"/><path class="cls-3" d="M107.19,408.15c-33.62,2.73-50.27,28.73-47.47,49.28.35,2.55.78,4.88,1.25,7A177,177,0,0,0,46.72,452c-11-8.77-15.53-11.65-18.17-16.95s-1.08-7.26-1.08-7.26.3,6.06,7.45,7.87,14.13-3.33,14.13-13.93c0-13.31-12-17.1-18.48-16.64s-9.47,3.48-9.47,3.48.77-4.24-3-9.69c-3.13-4.56-4.61-5.72-5-6,.81.46,6.19,3.15,16.06-.08V394a46,46,0,0,0,4.92-3.25c9-4.58,13.19-13.24,15.8-19.59a75.2,75.2,0,0,0,5.74-15.65,90.31,90.31,0,0,0,1.94-9.19c5,3.28,13.77,8.07,23.6,8.87,3.33,4.7,8.49,14,6.73,24.8-2,12.5-11.44,14.4-15.63,13.05a12.56,12.56,0,0,0-3.45-24.62A12.4,12.4,0,0,0,61.29,371c-1.87,1.08-6.7,4.56-8.56,12.74-2.33,10.25,7.2,25.4,29.9,16,22.17-9.13,16.81-34.65,8.63-45.37a28.89,28.89,0,0,0,7.06-2.73,38.44,38.44,0,0,0,15.34-14.41c1.79-1,12.58-6.13,18.59,5.5,6.34,12.22-6.39,18.43-9.23,15.89a9.6,9.6,0,0,0,1-4.19c0-4.62-3.08-8.35-6.89-8.35a6.57,6.57,0,0,0-5.55,3.44c-1.65,1.88-3.82,6.19-.92,14.58,3.45,10,20.25,8.27,27.57-.43,8.06-9.58,7-25.4.43-33.2-6-7.07-15.94-7.89-20.74-5.33,1.21-8.11-.24-16.85-3.65-25.39-8.33-20.79-41.89-29.2-47.29-6.68-6.79,28.28,14.63,31.41,14.63,31.41v-.08a9.8,9.8,0,0,0,3,.52c6.09,0,11-5.59,11-12.47,0-6.67-4.64-12.07-10.46-12.41,2.73-2,7.57-4.08,13.85-.29,10,6,15.69,39.2-10,43.87-17.53,3.2-26.31-4.28-30.58-11a49.53,49.53,0,0,0-1-7.72A60.09,60.09,0,0,0,50,305.55a41,41,0,0,0-8.71-10.37,65.43,65.43,0,0,0-6.46-5.11c-11.41-8-17.78-11.7-24.46-15A43.51,43.51,0,0,1,.1,268.16v17c4.5,4.24,13.7,7.93,22.24,11.56s22.55,9.66,25.79,26.78a66.31,66.31,0,0,1-2.49,30.41c-.54,1.57-.94,2.44-.94,2.44l.08.05a53.08,53.08,0,0,1-3.5,7.61,29.57,29.57,0,0,1-2.46,3.69A21.84,21.84,0,0,1,32,373.41c-10.25,5.3-28.86-4.31-27.39-17.15a48.88,48.88,0,0,1-3.83,6.23l-.65.95v71.65a26,26,0,0,0,7.18.68,10.29,10.29,0,0,0,6.62-2.64s-.72,5.06,4.56,12.32,13.66,10.9,13.66,10.9a38.17,38.17,0,0,0-21.27,5.14C2.38,466.61.6,469.57.23,470.44l-.13.11L0,500l13.52-.11v0l18.14,0s6.68-5.3,2.17-16.8-14.6-7.71-17.23-2.72c-1.87,3.52-1.26,5.91-.73,7-1.06-2-3.23-7.86,4.76-12.31,9.78-5.45,16.93-4.54,27.18.91a56.24,56.24,0,0,1,15,11.35c-2-.14-5.65,0-11.94,1.66a23.81,23.81,0,0,0-14.5,10.9h61a16.24,16.24,0,0,1,3.62-3.28l3.09-1.87a41.84,41.84,0,0,1-8.4-12.36,102.72,102.72,0,0,1-5.75-15.37l-.2.16c-1.24-5.54-2.85-16.55.94-25.88,5.3-13.07,29.62-18.38,39.21-6s10.9,27.58,2.36,35.34c-7,6.4-12.59,2.71-13.23,1.07,0,0,11-.35,12.78-12s-8-18.53-18.57-15.08c-4.87,1.58-11.4,9.17-13.14,17.75-2,10.15,5.77,25.64,24.64,26.36a58.56,58.56,0,0,1,5.6,5.46,41.85,41.85,0,0,1,4.08,5.72h10.94l-9-14s15.4-2.23,16.44-27.66S140.8,405.42,107.19,408.15Z"/><path class="cls-3" d="M438,137.51s-2.39,6.7,1.1,20.37a52.59,52.59,0,0,0,12.14,22.31,51.2,51.2,0,0,0-1.5-25.41C445.33,140.91,438,137.51,438,137.51Z"/><path class="cls-3" d="M280,499.89l40.59,0s-5.47-4.09-19.76-5S280,499.89,280,499.89Z"/></g></g></g></svg>