<svg xmlns="http://www.w3.org/2000/svg" xmlns:xlink="http://www.w3.org/1999/xlink" viewBox="0 0 503.51 320.33"><defs><style>.cls-1{fill:none;}.cls-2{fill:#fe0000;}.cls-3{fill:#b30000;}.cls-4{clip-path:url(#clip-path);}.cls-5{fill:#fff;}</style><clipPath id="clip-path"><path class="cls-1" d="M95.66,185.63c-12.66,10-45.33,15.34-54,8s6-34,34-37.33S133,143.63,151,129.63,213,95,271,107s94.66,43.33,116.66,66,18.67,32,49.34,34,56.66,4.66,49.33,18-26.67-7.34-61.33-.67-72.67,0-88-22-14.34-15-113.67-12.33C206.54,190.42,108.33,175.63,95.66,185.63Z"/></clipPath></defs><g id="Layer_2" data-name="Layer 2"><g id="Lips"><path class="cls-2" d="M255,24.3S286.33-5.7,319,1s74,49.33,89.33,76.66,56.67,84.67,74,104.67,28.67,51.34,15.33,76-50,83.34-132.66,54S250.33,261.63,199.66,237a222.26,222.26,0,0,0-124-20.67c-25.33,3.33-84-8.67-74.66-40.67S80.33,93,102.33,66.3,169-35,255,24.3Z"/><path class="cls-3" d="M127.73,161.61c-5.6,3.17-9.26,8.92-14.78,12.22a165,165,0,0,0-17.29,11.8c-12.66,10-45.33,15.34-54,8s6-34,34-37.33S133,143.73,151,129.73s62-34.66,120-22.66S365.66,150.3,387.66,173s18.67,32,49.34,34,56.66,4.66,49.33,18-26.67-7.34-61.33-.67-72.67,0-88-22-12-34.67-111.34-32c-16.79.45-36.18-16.79-48-16.67C148.4,153.93,134.4,157.82,127.73,161.61Z"/><g class="cls-4"><path class="cls-5" d="M94.41,142.49a19.38,19.38,0,0,0-2.11,17.8c2.75,6.81,6.82,15.05,10.9,16.53,7.14,2.59,34.09-2.92,37.33-6.82s1-21.43-.32-39.29,0,45.13,11,49.35,67.2,1.63,73.05-.32,11-13,11-22.08c0-7.74-2.59-44.91-3.36-55.77a2.75,2.75,0,0,1,2.71-3,3,3,0,0,1,2.91,3c0,12.51.12,60.12,2.93,67.44,3.25,8.44,5.85,9.74,14.94,11s62,1.62,65.58-2.27,6.34-3.28,2.58-56.15a2.7,2.7,0,0,1,3.59-2.78,5.66,5.66,0,0,1,3.61,5.68c-.79,12.06-2.76,46.15-.37,52.27,2.93,7.47,33.77,10.39,37.34,7.79,2.15-1.56,7.47-11.35,11.37-18.9a19.16,19.16,0,0,0-.2-17.82l-22.34-41.48A20.5,20.5,0,0,0,342,96.25L231.56,77.52A40.36,40.36,0,0,0,212.2,79l-87.49,28.81a28.77,28.77,0,0,0-15,11.48Z"/><path class="cls-5" d="M327.58,201.21c-.35-3.85,3-6.68,6.7-7.92,5.39-1.83,13.15-4.26,17-4.46,6.17-.32,23.38,2.92,39.93,44.8C406.51,272.41,330,227.43,327.58,201.21Z"/></g></g></g></svg>